<svg width="20" height="23" viewBox="0 0 20 23" fill="none" xmlns="http://www.w3.org/2000/svg">
<path opacity="0.3" d="M10 21C7.34784 21 4.8043 19.9464 2.92893 18.0711C1.05357 16.1957 0 13.6522 0 11L0 13C0 15.6522 1.05357 18.1957 2.92893 20.0711C4.8043 21.9464 7.34784 23 10 23C12.6522 23 15.1957 21.9464 17.0711 20.0711C18.9464 18.1957 20 15.6522 20 13V11C20 13.6522 18.9464 16.1957 17.0711 18.0711C15.1957 19.9464 12.6522 21 10 21Z" fill="#ABABAB"/>
<path d="M10 20C15.5228 20 20 15.5228 20 10C20 4.47715 15.5228 0 10 0C4.47715 0 0 4.47715 0 10C0 15.5228 4.47715 20 10 20Z" fill="white"/>
<path d="M10 12C11.1046 12 12 11.1046 12 10C12 8.89543 11.1046 8 10 8C8.89543 8 8 8.89543 8 10C8 11.1046 8.89543 12 10 12Z" fill="#ABABAB"/>
</svg>
